<?xml version="1.0" encoding="utf-8"?>

<!-- Uploaded to: SVG Repo, www.svgrepo.com, Generator: SVG Repo Mixer Tools -->
<svg width="800px" height="800px" viewBox="0 0 24 24" fill="none" xmlns="http://www.w3.org/2000/svg">
<g id="style=stroke">
<g id="mouse">
<path id="vector (Stroke)" fill-rule="evenodd" clip-rule="evenodd" d="M4.25 9C4.25 4.71979 7.71979 1.25 12 1.25C16.2802 1.25 19.75 4.71979 19.75 9V15C19.75 19.2802 16.2802 22.75 12 22.75C7.71979 22.75 4.25 19.2802 4.25 15V9ZM12 2.75C8.54822 2.75 5.75 5.54822 5.75 9V15C5.75 18.4518 8.54822 21.25 12 21.25C15.4518 21.25 18.25 18.4518 18.25 15V9C18.25 5.54822 15.4518 2.75 12 2.75Z" fill="#000000"/>
<path id="vector (Stroke)_2" fill-rule="evenodd" clip-rule="evenodd" d="M12 6.25C12.4142 6.25 12.75 6.58579 12.75 7V10C12.75 10.4142 12.4142 10.75 12 10.75C11.5858 10.75 11.25 10.4142 11.25 10V7C11.25 6.58579 11.5858 6.25 12 6.25Z" fill="#000000"/>
</g>
</g>
</svg>