<svg xmlns="http://www.w3.org/2000/svg" width="16" height="16" fill="currentColor" viewBox="0 0 16 16">
  <path d="M6 2.5a.5.5 0 0 1 .5-.5h7a.5.5 0 0 1 0 1h-7a.5.5 0 0 1-.5-.5zm0 3a.5.5 0 0 1 .5-.5h7a.5.5 0 0 1 0 1h-7a.5.5 0 0 1-.5-.5zm0 3a.5.5 0 0 1 .5-.5h7a.5.5 0 0 1 0 1h-7a.5.5 0 0 1-.5-.5zm0 3a.5.5 0 0 1 .5-.5h7a.5.5 0 0 1 0 1h-7a.5.5 0 0 1-.5-.5z"/>
  <path d="M2 2.5a1 1 0 1 1 2 0 1 1 0 0 1-2 0zm0 3a1 1 0 1 1 2 0 1 1 0 0 1-2 0zm0 3a1 1 0 1 1 2 0 1 1 0 0 1-2 0zm1 3a1 1 0 1 0 0 2 1 1 0 0 0 0-2z"/>
</svg>
