/* XPM */
static char *_4[] = {
/* columns rows colors chars-per-pixel */
"64 64 170 2 ",
"   c None",
".  c #2D9C66",
"X  c #2F9D68",
"o  c #339E6A",
"O  c #3B9E6D",
"+  c #36A06E",
"@  c #39A16F",
"#  c #3CA372",
"$  c #409F70",
"%  c #42A575",
"&  c #4AA275",
"*  c #45A778",
"=  c #4CA579",
"-  c #46A879",
";  c #4BAA7D",
":  c #53A67B",
">  c #59A77F",
",  c #52A97E",
"<  c #4FAD80",
"1  c #5DA582",
"2  c #52AE82",
"3  c #5CAB84",
"4  c #56B085",
"5  c #59B187",
"6  c #5CB38A",
"7  c #61A785",
"8  c #62AA86",
"9  c #64AB89",
"0  c #6BAD8D",
"q  c #62B58D",
"w  c #69B38F",
"e  c #6FAF90",
"r  c #70AF91",
"t  c #66B790",
"y  c #6CB592",
"u  c #66B891",
"i  c #6CBA95",
"p  c #6FBC98",
"a  c #73B294",
"s  c #78B396",
"d  c #71B997",
"f  c #7AB69A",
"g  c #73BD9A",
"h  c #7CBB9D",
"j  c #7DBFA0",
"k  c #76C09D",
"l  c #79C19F",
"z  c #7CC2A1",
"x  c #82B79D",
"c  c #81BA9F",
"v  c #84BCA2",
"b  c #89BEA6",
"n  c #8DBFA8",
"m  c #91BEAA",
"M  c #83C3A5",
"N  c #8AC0A7",
"B  c #86C6A8",
"V  c #8CC4AA",
"C  c #86C8A8",
"Z  c #8CCAAD",
"A  c #93C5AD",
"S  c #91C8AF",
"D  c #95C6B1",
"F  c #9AC6B4",
"G  c #94CBB2",
"H  c #9BCBB5",
"J  c #9ECDB9",
"K  c #97D0B5",
"L  c #99D1B7",
"P  c #9ED3BA",
"I  c #A2CDBB",
"U  c #A3D2BD",
"Y  c #A8D4BF",
"T  c #A8D3BF",
"R  c #AACFC1",
"E  c #A6D7C0",
"W  c #A6D3C0",
"Q  c #AAD3C1",
"!  c #A9D5C0",
"~  c #ABD5C1",
"^  c #ABD5C2",
"/  c #ABD6C2",
"(  c #ADD5C3",
")  c #ADD6C3",
"_  c #ABD4C3",
"`  c #A7D8C1",
"'  c #A8D8C2",
"]  c #ABDAC4",
"[  c #AFD8C4",
"{  c #AFD8C5",
"}  c #ACDBC5",
"|  c #AFDBC7",
" . c #ACD9C4",
".. c #AFD5C8",
"X. c #AED8C8",
"o. c #B0D7C6",
"O. c #B0D4C7",
"+. c #B0D9C5",
"@. c #B2DAC7",
"#. c #B1DAC6",
"$. c #B2D6CA",
"%. c #B3D9C8",
"&. c #B3DBC8",
"*. c #B5DBCA",
"=. c #B6DBCA",
"-. c #B1DDC8",
";. c #B3DEC9",
":. c #B3DDCA",
">. c #B5DCC9",
",. c #B6DDCA",
"<. c #B5DFCB",
"1. c #B7DECB",
"2. c #B7DFCD",
"3. c #B5DBCB",
"4. c #B8DDCC",
"5. c #B8DECC",
"6. c #B9DFCD",
"7. c #BBDECF",
"8. c #B9DDCD",
"9. c #BBD6D0",
"0. c #BDDCD2",
"q. c #B7E0CC",
"w. c #B6E0CC",
"e. c #B9E1CE",
"r. c #BAE0CF",
"t. c #BBE2CF",
"y. c #BCE0CF",
"u. c #BBE1CF",
"i. c #BDE1D0",
"p. c #BEE0D1",
"a. c #BCE2D1",
"s. c #BFE2D1",
"d. c #BFE2D2",
"f. c #BEE3D2",
"g. c #BEE2D1",
"h. c #C1DDD6",
"j. c #C5DED9",
"k. c #C8DFDB",
"l. c #C0E3D3",
"z. c #C1E4D3",
"x. c #C2E4D5",
"c. c #C3E5D5",
"v. c #C2E4D4",
"b. c #C5E6D6",
"n. c #C6E6D7",
"m. c #C6E7D7",
"M. c #C3E4D5",
"N. c #C6E7D8",
"B. c #C6E4D9",
"V. c #CAE3DD",
"C. c #C7E8D9",
"Z. c #C6E8D8",
"A. c #C8E8D9",
"S. c #C9E9D9",
"D. c #C9E8DA",
"F. c #C8E8DA",
"G. c #CBE9DB",
"H. c #CAE8DB",
"J. c #CEE4E1",
"K. c #CFE9E1",
"L. c #D2E5E4",
"P. c #D3EBE4",
"I. c #D5E7E8",
"U. c #D7EAE9",
"Y. c #DBEBEC",
"T. c #DFEEF0",
"R. c #E1EEF2",
"E. c #E5F1F6",
"W. c #E7F2F8",
"Q. c #EAF4FA",
/* pixels */
"                                1 1 7 7 9 9 0 0 0 e a a a s s f h h c v v N V A A G H H I U T ~ | #.,.6.y.s.v.b.A.N.s.w.| U P G ",
"                              1 1 7 8 9 0 0 0 e r a a a s s h h c v v b N V A A H H J U U ~ ( #.%.,.t.s.z.b.A.A.v.t.-.' P K Z C ",
"                            1 7 7 9 9 0 0 0 r r a a s s s h h v v v N V A A H H H I U Y ( | #.,.6.s.l.v.C.A.b.s.,. .U L G Z M z ",
"                          7 7 9 9 0 0 0 r a a a s s f h v v v b N V A A H H H I U T ~ | #.,.6.y.l.v.N.A.C.z.q.| E P H Z M z z l ",
"                        7 8 9 0 0 0 r a a s s f h c v v v b V V A D H H H I U T ~ | #.,.6.t.s.v.b.A.A.v.t.-. .U L G Z M z z l k ",
"                      8 9 9 0 0 e a a s f h c v v v b n V A A H H H I U U ~ ( #.%.&.6.y.s.v.b.A.A.b.s.2.| ' U L Z B M z z l k g ",
"                    9 9 0 0 0 a a s f c v b b n V A A D H H J I U T Q ( O.%.&.6.6.s.l.v.b.A.A.A.v.t.-.| E P H G Z M M z l k g g ",
"                    9 0 0 e a a s h v b V A D F F H I I I Q Q ( O.$.&.=.6.0.s.x.x.N.V.A.G.G.b.s.2.%. .E U H G G Z B M z l g g g ",
"                  0 0 0 r a a s c v n A F H I I R Q _ O.$.$.=.8.0.0.h.x.x.B.N.V.G.G.K.K.G.b.s.,.| ~ E _ 0.B.0._ G Z B M l g g p ",
"                0 0 e a a a f c v n D I I _ O.$.=.8.0.0.0.h.x.B.V.V.V.V.V.K.P.P.P.P.P.G.N.s.2.| E U h.R.J.h.j.Y.J.G B M z g g p ",
"              0 0 r a a s s h v n A J Y.R.R.E.E.E.E.E.E.E.E.E.E.Q.Q.E.W.W.Q.Q.Q.Q.Q.E.E.E.Y.| E U =.E.=.0.B.h...Y.h.Z M l g d i ",
"            0 e a a a s s h v b A F _ Q.Q.Q.Q.Q.Q.Q.Q.Q.Q.Q.Q.Q.Q.Q.Q.Q.Q.Q.Q.Q.Q.Q.Q.Q.Q.J.E U U Y.B.h.R.j.E.=.0.R.B M h g i i ",
"          e a a a s s s h v v V D J 0.Q.Q.Q.Q.Q.Q.Q.Q.Q.Q.Q.Q.Q.Q.Q.Q.Q.Q.Q.Q.Q.Q.Q.Q.Q.Q.=.U U U E.$.Y.k.Q T.$.=.E.B M h d i i ",
"        r a a a s s f h c v b A F I L.Q.Q.Q.Q.Q.Q.Q.Q.Q.Q.Q.Q.Q.Q.Q.Q.Q.Q.Q.Q.Q.Q.Q.Q.Q.E._ P J J E.$.T.h._ E.$.V.L.B z g i i t ",
"      a a a s s s h h v v b V D H I 0.V.V.J.L.P.U.U.Y.T.E.Q.Q.Q.Q.Q.E.Y.U.U.P.J.V.B.B.h.0.J H H H Y.h.j.R.U.U.U.U.J M h d i t q ",
"    a a s s s f h c v v N V A H H U _ O.8.0.h.B.V.V.P.U.Y.Q.Q.Q.Q.Q.P.V.B.0.=.X.~ U U J H G G G G ..R.=._ W I $.G M j g i t q 6 ",
"  a a s s s h h c v b V V A H H I U ( #.&.6.0.x.N.V.P.U.E.Q.Q.Q.Q.E.V.d.2.( W P H H G G Z B B B B Z $.U.U.L.U.V.M z g d i q q 6 ",
"  s s s h h c v v N V A A H H I U Q ( %.,.6.s.x.V.G.P.U.W.Q.Q.Q.Q.U.0.%.E J H G Z Z B B M M M M M M B Z H I G M j g d i q q 6 5 ",
"s s f h c v v N V A A G H H I U ~ ( #.,.6.s.x.N.G.P.P.U.Q.Q.Q.Q.Q.B.%.W H G Z B M M M z z l l h h z z M M z j h g i y q q 6 5 4 ",
"f h h c v b N V A S H H I U U ~ ( #.,.6.s.l.b.A.G.P.K.P.Q.Q.Q.Q.Q.8._ J G B M z z l k g g g g g g g g g g g d d i t q 6 6 5 4 2 ",
"c c v v N V A A H H H U U ~ ( #.&.,.6.s.x.b.A.G.A.N.N.K.Q.Q.Q.Q.E.$.U H Z M z l g g g g g i i i i i i i i i i t q q 6 5 5 4 2 2 ",
"v v N V A A G H H I U T ~ | #.,.6.y.l.b.V.A.C.v.s.s.d.U.Q.Q.Q.Q.Y._ J G B z l g g g p p i i i i y t y t t q q q 6 6 5 5 2 2 2 < ",
"b N V A G H H I U U ~ ( #.&.4.t.s.v.b.A.A.v.t.2.,.2.0.T.Q.Q.Q.Q.V.W H Z M z g g p p i i i u u t q q q q q 6 6 6 5 5 4 2 2 < ; ; ",
"V A A H H H U U ~ ( #.%.,.6.s.l.b.A.A.v.a.,.|  . .| =.E.Q.Q.Q.Q.=.U G B z g g p i i i u u t q q q 6 6 6 6 5 5 4 4 2 2 2 < ; ; ; ",
"A G H H I U T ~ | #.,.6.y.l.v.N.A.b.s.,.| E U U U ~ =.Q.Q.Q.Q.E...I G B z g p i i i u t q q q 6 6 6 5 5 5 4 4 2 2 2 < ; ; ; ; - ",
"H H I U U ~ ( #.&.6.t.s.v.b.A.C.f.q.| ` P L H H J W 0.Q.Q.Q.Q.E._ J Z M h g i i u t t q q q 6 6 5 5 5 4 4 2 2 2 2 ; ; ; ; - - - ",
"H U U ~ ( #.%.,.6.s.z.b.A.A.v.t.-.' U L G Z Z G J _ J.Q.Q.Q.Q.Y.W H B z g i i u t q q q 6 6 6 5 5 4 4 2 2 2 2 < ; ; ; ; - - - * ",
"U Y ~ | #.,.6.s.l.v.N.A.b.s.,. .U L G Z B B Z G J _ T.Q.Q.Q.Q.B.I G M h g i u t q q 6 6 6 5 5 4 4 4 2 2 2 < < ; ; ; - - - * * * ",
"~ ( #.&.6.t.s.v.b.A.C.f.q.| E P K Z B M M M Z G J ( E.Q.Q.Q.Q.$.J A M g i i t q q 6 6 6 5 5 4 4 2 2 2 < ; ; ; ; - - - * * * * # ",
"#.%.,.6.s.l.b.A.A.v.t.-.' U K Z C M z z z M Z G U %.Q.Q.Q.Q.E._ H V z g i t q 6 6 6 5 5 5 4 2 2 2 2 < ; ; ; ; - - - * * * # # # ",
",.6.y.l.v.N.A.b.s.-.' U L G Z M z z z z z M Z G U 0.Q.Q.Q.Q.E.W G N h i t q 6 6 5 5 5 4 2 2 2 2 < ; ; ; ; - - - * * * # # # # # ",
"t.s.v.b.A.N.f.q.| Y P G Z M z z z l l l z M Z H U V.Q.Q.Q.Q.U.I D M g i q q 6 5 5 4 4 2 2 2 < ; ; ; ; - - - - * * * # # # # # @ ",
"z.b.A.A.v.t.-.' P K Z C z z z l l k k l z M Z H W Y.Q.Q.Q.Q.h.J Z v d y q 6 5 5 4 2 2 2 2 ; ; ; ; - - - - * * # # # # # # + + + ",
"N.A.b.s.-.' U L G Z M z z z l k k k g g z M Z H Q E.Q.Q.Q.Q._ H N h i q 6 5 4 4 2 2 2 2 ; ; ; ; - - - * * * # # # # # @ + + + o ",
"b.f.q.| Y P G Z M z z z l k g g g g g g z M Z J $.Q.Q.Q.Q.E.Q G M g y q 6 5 2 2 2 2 < ; ; ; - - - - * * * # # # # # + + + o o o ",
"t.-.' P K Z C z z l l l k k g g g g g g j M S J 8.Q.Q.Q.Q.R.I D v g t 6 5 2 2 2 2 < ; ; - - - - * * * # # # # # @ + + o o o X X ",
"' U L G Z M z z l k k g g g g g p p g g j B G I V.Q.Q.Q.Q.U.J Z j d q 5 2 2 2 < ; ; ; - - - * * * # # # # # + + + + o o o X X . ",
"P G Z M z z l l k g g g g g p p p i p g j M G I Y.Q.Q.Q.Q.0.H N h y q 5 2 2 ; ; ; ; - - - * * * # # # # # + + + o o X X X X X X ",
"Z C z z l l k k g g g g p p i i i i i d j N G W E.Q.Q.Q.Q.Q D M g q 6 2 2 ; ; ; - - - * * * # # # # # @ + + o o o X X X X X . X ",
"M z z l k k g g g g p p i i i i i i i d j N H _ Q.Q.Q.Q.E.I A v a q 3 2 ; ; ; - - * * * # # # # # @ + + + o o X X X X X X X . . ",
"z l l k g g g g p p i i i i i i i i i d j V H =.Q.Q.Q.Q.R.J V h y q 3 2 ; ; - - * * * # # # # # + + + o o o X X X . . . . . . . ",
"k k k g g g p p p i i i i i u u u i i g v Z H V.Q.Q.Q.Q.L.H N h y 6 2 ; ; - - * * * # # # @ @ + + o o o o X X . . X X . . . . . ",
"k g g g g p p i i i i i i i u u t i i h M A I Y.Q.Q.Q.Q.0.F b s w 3 2 ; ; - * % * # # # @ + + + o o X X X X X X . . . . . . . . ",
"g g g p p i i i i i i i i i i i i i d h N D I W.Q.Q.Q.W.Q F b s y 8 3 2 , - * % * # # # + + o o X X X X X X X X X . . . . X . . ",
"g g p i i i i i i i i i i i d d d g h v Z H O.Q.Q.Q.Q.E.R F b h a w 8 3 2 , - % * # # + + o o X X X X . . . X X X . . . X X X . ",
"p p i i i i u i i i i d g g h h h v v V D I 0.Q.Q.Q.Q.R.R F A v h a y w 8 3 , - % # @ o o o X X X . X . . X X X X . . . X X X . ",
"i i i i u u u i i i g h j M M N N V A F I Q J.Q.Q.Q.Q.U._ I F V v c s s w 9 3 : & % @ o o X X X . . . . . . X X . . . . X X X X ",
"i i u u t q q i i g h M N Z A D F H J I Q $.T.Q.Q.Q.Q.V.$.R I F A V b v s a 9 3 = % O o o X X X . . . . . . . . . . . . X X X   ",
"u u u q q q q i d h v Q h.h.j.j.j.V.V.V.J.L.W.Q.Q.Q.Q.U.L.J.V.k.j.h.h.0.9.$.a 3 : % O o o X X X X X . . . . . . . . . . . .     ",
"u t q q q 6 q i d h M U.W.W.Q.Q.Q.Q.Q.Q.Q.Q.Q.Q.Q.Q.Q.Q.Q.Q.Q.Q.Q.W.W.E.E.Y.a 8 : % O o X X X X X X . X . . . . . . X . .       ",
"q q 6 6 6 6 6 y d h V E.W.Q.Q.Q.Q.Q.Q.Q.Q.Q.Q.Q.Q.Q.Q.Q.Q.Q.Q.Q.Q.Q.W.E.E.j.a 8 : % O o X X X X X X X X X X . . . . X X         ",
"q 6 6 6 5 5 6 y d h H W.W.Q.Q.Q.Q.Q.Q.Q.Q.Q.Q.Q.Q.Q.Q.Q.Q.Q.Q.Q.Q.Q.W.E.E.F a 8 : % O o X X X X X X X X . . . . . X X X         ",
"6 6 6 5 5 4 5 q y g I U.U.U.Y.Y.Y.Y.Y.Y.Y.Y.Y.Y.Y.Y.Y.Y.Y.Y.Y.Y.U.U.U.U.I.x 0 3 = % O o X X X . . . X X . . . . X X X           ",
"6 5 5 5 4 4 4 q q y h v V A D F F F F F F F F F F F F F F F D A A m b v f 0 8 : & O O o X X . . . . . X . . . . X X             ",
"5 5 4 4 2 2 2 5 q w y d h c v v v b v v v v v v v v v v v c c x f f s a 0 8 : & $ O o o X X . . . . X X . . . . X               ",
"4 4 4 2 2 2 2 2 3 6 q w y y a a s s a a a a a a a a a a a 0 0 0 0 0 9 8 1 : & % O o o X X . . . . . X X X . . .                 ",
"4 2 2 2 < ; ; 2 2 2 2 3 3 8 8 8 8 8 8 8 8 8 8 3 3 3 3 3 3 > > > > > : : & % $ O o o X X . X X X . . . . X X X                   ",
"2 2 2 < ; ; ; ; ; ; ; , , , , , , , , : : = = = = = & & & & & & & & % $ O O O o o X X X . . X X . . X . X X                     ",
"2 < ; ; ; ; - - - - - - - - * * % % % % % % % % % O O O O O O O O O O O o o o X X X X X . . . . . . X X X                       ",
"; ; ; ; - - - - * * * * * * * # # # # @ @ O O o O o o o o o o o o o o o X X X X X X X X . . . . . . . X                         ",
"; ; ; - - - * * * * # # # # # @ @ + o o o o o o o o X X X X o o o o X X X X X . X X . . . . . . . . X                           ",
"; - - - * * * # # # # # # @ @ + + o o o o X X X X X X X X X X X X X X X X X X X X X . . . . . . . . X                           ",
"- - * * * # # # # # # + + + o o o o o X X X X X X X X X X X X X X X X X X X X X X . . . . X X . . .                             ",
"- * * * # # # # # @ + + o o o o o X X X X X X X X X X X X X X X X X X X X X X X . . . . X X X X .                               "
};
